<!DOCTYPE svg PUBLIC "-//W3C//DTD SVG 1.1//EN" "http://www.w3.org/Graphics/SVG/1.1/DTD/svg11.dtd">
<!-- Uploaded to: SVG Find, www.svgfind.com, Transformed by: SVG Find Mixer Tools -->
<svg fill="#8a2be2" width="800px" height="800px" version="1.1" viewBox="144 144 512 512" xmlns="http://www.w3.org/2000/svg">
<g id="SVGRepo_bgCarrier" stroke-width="0"/>
<g id="SVGRepo_tracerCarrier" stroke-linecap="round" stroke-linejoin="round"/>
<g id="SVGRepo_iconCarrier"> <path d="m607.94 175.35h-415.88v45.555h7.1055v323.39c0 3.9766 3.2344 7.2656 7.2656 7.2656h186.36v38.871c-6.2578 2.8125-10.66 9.0703-10.66 16.336 0 9.8633 8.0078 17.926 17.926 17.926 9.8633 0 17.926-8.0078 17.926-17.926 0-7.3203-4.4023-13.578-10.66-16.336v-38.871h186.36c3.9766 0 7.2656-3.2344 7.2656-7.2656v-323.39h7.1055l0.003906-45.555zm-21.582 361.68h-372.71v-316.13h372.71zm-130.25-43.805h-127.28v-28.371h14.477v13.895h112.8zm-112.8-192.83h-14.477v-28.371h127.28v14.477h-112.8zm213.14-36.539h-62.102v-14.477h62.102zm0 22.434h-62.102v-14.477h62.102zm0 22.434h-62.102v-14.477l62.102-0.003906zm0 22.434h-62.102v-14.477l62.102-0.003906zm0 121.23h-62.102v-14.477h62.102zm0 22.434h-62.102v-14.477l62.102-0.003906zm0 22.434h-62.102v-14.477l62.102-0.003906zm0 22.43h-62.102v-14.477h62.102zm-290.51-133.32h61.625v64.062c-33.254-3.4453-59.453-30.492-61.625-64.062zm61.621-14.477h-61.094c4.4531-31.078 29.645-55.473 61.094-58.762zm14.48-58.758c34.738 3.6055 61.781 32.984 61.781 68.625 0 35.637-27.047 65.02-61.781 68.625z"/> </g>
</svg>