<!DOCTYPE svg PUBLIC "-//W3C//DTD SVG 1.1//EN" "http://www.w3.org/Graphics/SVG/1.1/DTD/svg11.dtd">
<!-- Uploaded to: SVG Find, www.svgfind.com, Transformed by: SVG Find Mixer Tools -->
<svg fill="#8a2be2" width="800px" height="800px" version="1.1" viewBox="144 144 512 512" xmlns="http://www.w3.org/2000/svg" stroke="#8a2be2">
<g id="SVGRepo_bgCarrier" stroke-width="0"/>
<g id="SVGRepo_tracerCarrier" stroke-linecap="round" stroke-linejoin="round"/>
<g id="SVGRepo_iconCarrier"> <path d="m531.98 529.55-83.398-25.766v-4.2109c4.1758-3.4297 8.0469-7.2188 11.566-11.32 7.1055 1.4688 14.336 2.2539 21.594 2.3398 30.75-0.66797 60.207-12.484 82.895-33.25 2.5625-2.5273 3.9922-5.9844 3.957-9.5859-0.035156-3.5977-1.5273-7.0273-4.1367-9.5039-33.594-31.867-57.578-95.363-63.461-112.24l21.594-56.246h-0.003906c1.9922-5.1797 0.55859-11.047-3.5977-14.719-2.5-2.1797-61.41-53.746-115.39-68.934-0.34375-0.089843-0.66406 0-1.0078 0-1.7188-0.25781-3.4648-0.25781-5.1836 0h-0.98828c-53.98 15.203-112.91 66.754-115.39 68.949-4.1562 3.6758-5.5898 9.543-3.5977 14.719l21.594 56.281c-5.9727 16.969-29.887 80.359-63.461 112.21h-0.003906c-2.6172 2.4766-4.1133 5.9062-4.1445 9.5078-0.035156 3.6016 1.3945 7.0586 3.9648 9.582 22.691 20.773 52.156 32.594 82.914 33.254 7.2539-0.097656 14.484-0.87891 21.59-2.3398 3.5195 4.1016 7.3906 7.8867 11.57 11.316v4.2109l-82.391 25.516c-1.6562 0.37891-40.863 9.6797-50.922 69.363-1.2188 7.1992 3.6055 14.031 10.797 15.293 0.73828 0.12109 1.4844 0.18359 2.2305 0.17969 6.4766-0.003906 12.004-4.6797 13.082-11.066 7.0156-41.148 29.797-47.625 31.594-48.113l75.68-23.391v9.1602c2.2305 10.039 7.4375 19.176 14.945 26.211 7.5039 7.0312 16.957 11.637 27.125 13.211 1.0195 0.25 2.0625 0.375 3.1133 0.37891h6.5508-0.003906c1.0508-0.003907 2.0938-0.12891 3.1133-0.37891 10.434-1.6289 20.105-6.4609 27.668-13.832 7.5625-7.3711 12.648-16.91 14.547-27.301v-7.4688l76.383 23.605c0.97266 0.26953 23.805 6.8008 30.73 47.898v0.003906c1.0781 6.3828 6.6055 11.059 13.078 11.066 0.74219 0 1.4844-0.058594 2.2148-0.17969 7.2266-1.2227 12.102-8.0664 10.887-15.297-10.078-59.664-49.301-68.965-49.895-69.109zm-185.96-85.129v-52.305c20.504-9.1172 38.887-22.402 53.98-39.008 15.086 16.609 33.473 29.895 53.977 39.008v52.289c-3.4414 12.543-10.32 23.871-19.859 32.715-9.5352 8.8438-21.352 14.852-34.117 17.34-12.77-2.4727-24.594-8.4727-34.133-17.312-9.5391-8.8438-16.414-20.18-19.848-32.727zm53.98-231.55c34.367 13.359 66.273 32.352 94.41 56.191l-14.285 37.156h-0.003906c-24.594-12.066-51.648-18.285-79.043-18.176h-2.3398c-27.336-0.10156-54.328 6.1172-78.863 18.176l-14.305-37.121c28.129-23.867 60.043-42.871 94.43-56.227zm-135.72 233.68c26.121-33.816 46.41-71.758 60.023-112.26 22.562-13.348 48.391-20.164 74.602-19.688h2.1602-0.003906c26.215-0.46094 52.043 6.3555 74.621 19.688 13.609 40.484 33.883 78.414 59.988 112.22-17.641 12.18-38.812 18.188-60.223 17.094 2.207-5.0469 3.8594-10.32 4.9297-15.727 0.12109-0.71484 0.17969-1.4375 0.17969-2.1602v-62.383c-0.003907-5.5547-3.4609-10.523-8.6719-12.449-22.426-8.6289-42.105-23.152-56.969-42.035-2.457-3.7344-6.6289-5.9883-11.102-5.9883h-7.6289c-4.4727 0-8.6445 2.2539-11.102 5.9883-14.883 18.898-34.598 33.422-57.055 42.035-5.2109 1.9297-8.668 6.8945-8.6758 12.449v62.383c0.003907 0.72266 0.066407 1.4453 0.17969 2.1602 1.0781 5.418 2.7344 10.703 4.9492 15.762-21.414 1.1719-42.602-4.8438-60.203-17.094zm137.32 107.46h-3.2031c-15.961-4.3203-19.648-13.566-20.402-16.32l-0.003906-22.527c6.1992 2.5195 12.598 4.5195 19.129 5.9727 0.9375 0.20312 1.8984 0.30859 2.8594 0.30469h0.10938c0.92969-0.003906 1.8594-0.10938 2.7695-0.30469 6.5391-1.4531 12.941-3.4531 19.145-5.9727v22.582c-0.75391 2.6055-4.4453 11.926-20.402 16.266z"/> </g>
</svg>