<!DOCTYPE svg PUBLIC "-//W3C//DTD SVG 1.1//EN" "http://www.w3.org/Graphics/SVG/1.1/DTD/svg11.dtd">
<!-- Uploaded to: SVG Find, www.svgfind.com, Transformed by: SVG Find Mixer Tools -->
<svg fill="#8a2be2" width="800px" height="800px" version="1.1" viewBox="144 144 512 512" xmlns="http://www.w3.org/2000/svg">
<g id="SVGRepo_bgCarrier" stroke-width="0"/>
<g id="SVGRepo_tracerCarrier" stroke-linecap="round" stroke-linejoin="round"/>
<g id="SVGRepo_iconCarrier"> <g> <path d="m618.15 512.35c-16.121-8.5664-35.77-6.0469-48.871 7.0547-21.664 19.145-65.496 25.191-73.555 26.199l-39.297-10.578c26.199-3.5273 56.93-7.5586 64.992-11.082 11.082-5.0391 16.625-19.145 17.633-29.727 1.5117-9.5742-3.0234-19.145-11.082-24.688-9.0703-5.543-28.215-5.0391-54.41-3.5273-8.5664 0.50391-16.625 1.0078-25.191 0.50391l-2.0195-1.0117c-43.328-22.168-72.043-31.738-88.672-29.727-18.641 2.0156-69.023 14.609-90.184 19.648v-8.5664c0-4.0312-3.5273-7.5586-7.5586-7.5586l-86.648 0.007813c-4.0312 0-7.5586 3.5273-7.5586 7.5586v122.43c0 3.5234 3.5273 7.0508 7.5586 7.0508h86.656c4.0312 0 7.5586-3.5273 7.5586-7.5586l-0.003906-7.5547h15.113c14.105 9.0703 97.738 61.969 134.52 67.512 6.0469 1.0078 12.09 1.0078 18.641 1.0078 30.23 0 70.535-7.0547 93.707-11.082 6.5508-1.0078 13.098-2.5195 14.609-2.5195 12.09 0 86.152-60.961 89.68-77.082 2.0195-9.5781-4.0273-20.156-15.613-26.707zm-75.066 88.672c-2.5195 0-6.5508 1.0078-16.121 2.5195-25.695 4.5352-79.602 13.602-107.31 10.078-36.273-5.0391-129.48-65.496-130.49-66.504-1.0078-1.0078-2.5195-1.0078-4.0312-1.0078h-17.633v-75.07c17.633-4.5352 73.051-18.137 91.691-20.152 7.5586-1.0078 27.207 1.5117 79.602 28.215l2.0156 1.0078c5.0391 2.5195 14.105 2.0156 32.746 1.0078 15.113-1.0078 39.801-2.0156 45.848 1.5117 4.0312 2.5195 4.0312 8.5664 4.0312 10.578 0 6.5508-3.0234 13.098-8.5664 16.625-7.5547 4.0312-64.484 11.086-98.238 14.613-4.0312 0.50391-7.0547 4.0312-7.0547 8.0625 0.50391 3.0234 2.5195 5.543 5.543 6.5508l78.09 21.664c1.0078 0.5 1.5117 0.5 2.5195 0.5 2.0156 0 55.922-5.543 83.633-30.23 14.105-12.594 26.703-7.5586 31.234-5.0391 6.0469 3.5273 8.5664 8.0625 8.0625 10.078-3.5273 11.082-63.984 60.457-75.57 64.992zm-362.75-147.11h72.043l0.003906 107.31h-71.543z"/> <path d="m473.55 450.38h2.0156 2.0156c91.191-25.191 148.62-109.83 156.18-177.34 4.5352-41.816-9.5742-75.066-39.801-90.688-58.945-31.738-102.78 11.082-118.39 30.23-16.121-19.145-59.449-61.969-118.39-30.23-29.727 15.617-44.336 48.871-39.801 90.688 7.5547 67.008 64.988 152.15 156.18 177.34zm-4.5352-221.68c1.5117 2.0156 4.0312 3.5273 6.5508 3.5273 2.5195 0 5.0391-1.5117 6.5508-3.5273 1.5117-2.5195 42.824-66.504 104.79-33.754 33.25 17.633 34.258 54.914 31.738 76.074-7.0547 61.969-59.449 140.06-143.08 164.24-83.633-23.68-136.03-102.27-143.08-164.24-2.5195-20.656-1.5117-58.441 31.738-76.074 10.578-6.0469 22.672-9.0703 35.266-9.5742 41.82 0.50391 68.016 41.312 69.527 43.328z"/> </g> </g>
</svg>