<!DOCTYPE svg PUBLIC "-//W3C//DTD SVG 1.1//EN" "http://www.w3.org/Graphics/SVG/1.1/DTD/svg11.dtd">
<!-- Uploaded to: SVG Find, www.svgfind.com, Transformed by: SVG Find Mixer Tools -->
<svg fill="#00a99d" width="800px" height="800px" version="1.1" viewBox="144 144 512 512" xmlns="http://www.w3.org/2000/svg">
<g id="SVGRepo_bgCarrier" stroke-width="0"/>
<g id="SVGRepo_tracerCarrier" stroke-linecap="round" stroke-linejoin="round"/>
<g id="SVGRepo_iconCarrier"> <g> <path d="m589.43 517.79h-56.57l0.003906-115.21c-0.44531-10.055-11.43-7.6289-18.23-7.8711l-13.461-32.68h4.1367c4.3008-0.066406 7.7539-3.5742 7.7539-7.875s-3.4531-7.8047-7.7539-7.8711c-9.7148 0.015625-35.152-0.011718-45.207 0h-15.895 0.003907c-2.0898 0-4.0898 0.82812-5.5664 2.3047-1.4766 1.4766-2.3086 3.4805-2.3047 5.5664 0.21484 6.9062 6.2305 8.4219 12.008 7.8711l-13.461 32.68-37.027 0.003907-22.91-70.586h11.496l0.003907-0.003906c4.3008-0.0625 7.7578-3.5664 7.7578-7.8711 0-4.3008-3.457-7.8086-7.7578-7.8711-13.988-0.015625-49.137 0.011719-63.508 0h-22.328c-4.2891 0.082032-7.7227 3.582-7.7227 7.8711s3.4336 7.793 7.7227 7.8711h11.496l-22.91 70.586-29.938 0.003907c-2.0859-0.003907-4.0898 0.82812-5.5664 2.3047-1.4766 1.4766-2.3047 3.4766-2.3047 5.5664v63.359h-56.555c-2.0859 0-4.0898 0.82812-5.5664 2.3047-1.4766 1.4766-2.3047 3.4805-2.3047 5.5703v146.6c0 2.0898 0.82812 4.0898 2.3047 5.5664 1.4766 1.4766 3.4805 2.3086 5.5664 2.3086h85.496c26.258-0.12891 213.84 0.046876 244.71 0h64.391c2.0898 0 4.0898-0.83203 5.5664-2.3086 1.4766-1.4766 2.3086-3.4766 2.3086-5.5664v-94.746c0-2.0898-0.83203-4.0938-2.3086-5.5703-1.4766-1.4727-3.4766-2.3047-5.5664-2.3047zm-105.29-155.76 13.453 32.664h-45.676l13.453-32.664zm-155.48-37.91h29.738l22.898 70.574h-75.539zm-125.95 157.57c28.293 0.027344 84.762-0.019531 113.05 0v130.84h-27.551v-60.617h-0.003906c0-2.0859-0.82812-4.0898-2.3047-5.5664-1.4766-1.4766-3.4805-2.3047-5.5664-2.3047h-42.199c-2.0859 0-4.0898 0.82813-5.5664 2.3047-1.4766 1.4766-2.3047 3.4805-2.3047 5.5664v60.633h-27.551zm43.297 78.098h26.453v52.742h-13.199c-0.054688 0.085937-13.188-0.03125-13.258 0.015625zm271.11 52.742h-185.62v-138.71c0-2.0898-0.82812-4.0938-2.3047-5.5703-1.4766-1.4766-3.4805-2.3047-5.5703-2.3047h-56.488v-55.488h249.98zm64.438 0.015625h-48.652v-79.004h48.652z"/> <path d="m364.12 481.69c51.016-0.96875 41.148 8.8477 42.129-42.129 0-2.0859-0.83203-4.0898-2.3086-5.5664-1.4727-1.4766-3.4766-2.3047-5.5664-2.3047h-34.254c-2.0898 0-4.0898 0.82812-5.5664 2.3047-1.4766 1.4766-2.3047 3.4805-2.3047 5.5664v34.258c0 2.0859 0.82812 4.0898 2.3047 5.5664 1.4766 1.4766 3.4766 2.3047 5.5664 2.3047zm7.8711-34.254 18.512-0.003906v18.512h-18.512z"/> <path d="m364.12 553.61c51.008-0.96875 41.152 8.8516 42.129-42.121v0.003907c0-2.0898-0.83203-4.0938-2.3047-5.5703-1.4766-1.4766-3.4805-2.3047-5.5703-2.3047h-34.254c-2.0898 0-4.0898 0.82812-5.5664 2.3047-1.4766 1.4766-2.3047 3.4805-2.3047 5.5703v34.246c0 2.0898 0.82812 4.0898 2.3047 5.5664 1.4766 1.4766 3.4766 2.3047 5.5664 2.3047zm7.8711-34.246h18.512v18.504h-18.512z"/> <path d="m436.9 481.69c51.016-0.96484 41.145 8.8398 42.125-42.129 0-2.0859-0.82812-4.0898-2.3047-5.5664-1.4766-1.4766-3.4805-2.3047-5.5703-2.3047h-34.25c-2.0859 0-4.0898 0.82812-5.5664 2.3047-1.4766 1.4766-2.3047 3.4805-2.3047 5.5664v34.258c0 2.0859 0.82812 4.0898 2.3047 5.5664 1.4766 1.4766 3.4805 2.3047 5.5664 2.3047zm7.8711-34.254h18.508v18.508h-18.508z"/> <path d="m436.9 553.61c51.004-0.96875 41.145 8.8477 42.125-42.121v0.003907c0-2.0898-0.82812-4.0938-2.3047-5.5703-1.4766-1.4766-3.4805-2.3047-5.5703-2.3047h-34.25c-2.0859 0-4.0898 0.82812-5.5664 2.3047-1.4766 1.4766-2.3047 3.4805-2.3047 5.5703v34.246c0 2.0898 0.82812 4.0898 2.3047 5.5664 1.4766 1.4766 3.4805 2.3047 5.5664 2.3047zm7.8711-34.246h18.508v18.504h-18.508z"/> <path d="m323.62 266.23c2.0898 0 4.0938-0.82812 5.5703-2.3047 1.4766-1.4766 2.3047-3.4766 2.3047-5.5664v-18.148c0.003906-4.6328 1.8477-9.0742 5.125-12.352 3.2773-3.2773 7.7188-5.1172 12.352-5.125h79.703c8.8086-0.007813 17.254-3.5078 23.48-9.7383 6.2305-6.2266 9.7305-14.672 9.7422-23.477v-9.9336c-0.082032-4.2891-3.582-7.7227-7.8711-7.7227-4.293 0-7.793 3.4336-7.8711 7.7227v9.9336c-0.007812 4.6328-1.8516 9.0742-5.1289 12.348-3.2773 3.2773-7.7188 5.1211-12.352 5.125h-79.703c-8.8086 0.007813-17.254 3.5117-23.48 9.7383-6.2266 6.2266-9.7305 14.672-9.7422 23.48v18.148c0 2.0898 0.82812 4.0898 2.3047 5.5664 1.4766 1.4766 3.4805 2.3047 5.5664 2.3047z"/> <path d="m350.69 275.14v18.152c0 4.3477 3.5234 7.8711 7.8711 7.8711s7.8711-3.5234 7.8711-7.8711v-18.152c0.007812-4.6328 1.8516-9.0742 5.125-12.348 3.2773-3.2773 7.7188-5.1211 12.352-5.125h79.707c8.8086-0.007812 17.25-3.5117 23.48-9.7383 6.2266-6.2266 9.7305-14.672 9.7422-23.48v-9.9297c-0.082032-4.293-3.582-7.7266-7.875-7.7266-4.2891 0-7.7891 3.4375-7.8711 7.7266v9.9297c-0.003906 4.6328-1.8477 9.0742-5.125 12.352s-7.7188 5.1172-12.352 5.125h-79.707c-8.8086 0.007813-17.25 3.5117-23.48 9.7383-6.2266 6.2266-9.7305 14.672-9.7383 23.477z"/> <path d="m605.16 240.68c-9.918 0.43359-7.6758 11.078-7.8711 17.805-0.007812 4.6328-1.8516 9.0742-5.125 12.348-3.2773 3.2773-7.7188 5.1172-12.352 5.125h-79.707c-8.8086 0.007813-17.25 3.5117-23.477 9.7383-6.2305 6.2305-9.7305 14.672-9.7422 23.48v18.148c0.082031 4.2891 3.582 7.7227 7.875 7.7227 4.2891 0 7.7891-3.4336 7.8711-7.7227v-18.148c0.003907-4.6328 1.8477-9.0742 5.1211-12.352 3.2773-3.2773 7.7188-5.1172 12.352-5.125h79.707c8.8086-0.007812 17.25-3.5117 23.48-9.7383 6.2266-6.2266 9.7305-14.672 9.7383-23.477v-9.9336c0-2.0898-0.82812-4.0898-2.3047-5.5664-1.4766-1.4766-3.4805-2.3047-5.5664-2.3047z"/> </g> </g>
</svg>