<!DOCTYPE svg PUBLIC "-//W3C//DTD SVG 1.1//EN" "http://www.w3.org/Graphics/SVG/1.1/DTD/svg11.dtd">
<!-- Uploaded to: SVG Find, www.svgfind.com, Transformed by: SVG Find Mixer Tools -->
<svg width="800px" height="800px" version="1.1" viewBox="144 144 512 512" xmlns="http://www.w3.org/2000/svg" fill="#8a2be2">
<g id="SVGRepo_bgCarrier" stroke-width="0"/>
<g id="SVGRepo_tracerCarrier" stroke-linecap="round" stroke-linejoin="round"/>
<g id="SVGRepo_iconCarrier"> <defs> <clipPath id="b"> <path d="m148.09 242h126.91v211h-126.91z"/> </clipPath> <clipPath id="a"> <path d="m505 263h146.9v211h-146.9z"/> </clipPath> </defs> <path d="m545.89 458.46c-9.8867-20.613-45.258-49.227-79.434-76.875-19.062-15.41-37.074-29.977-48.555-41.461-2.875-2.8984-7.1797-3.8203-10.98-2.457-7.0742 2.5625-11.441 4.5352-14.883 6.0664-5.2461 2.3516-7.0117 3.1484-14.086 3.8633-3.1289 0.31641-5.9414 1.9961-7.6836 4.5977-14.84 22.188-30.207 20.301-40.473 16.855-3.2734-1.0898-3.8633-2.5-4.1758-3.8398-2.2031-9.2148 8.8594-30.668 23.195-45.008 34.113-34.133 51.703-42.676 88.859-26.07 42.152 18.852 84.387 33.609 84.809 33.754 5.5195 1.9102 11.461-0.98828 13.371-6.4648 1.8906-5.4805-0.98828-11.461-6.4648-13.371-0.42188-0.14844-41.816-14.609-83.129-33.105-48.133-21.516-74.543-7.3477-112.27 30.398-14.359 14.359-33.859 43.41-28.824 64.719 2.1602 9.0703 8.543 15.785 18.031 18.914 23.785 7.8516 45.488 0.33594 61.652-21.117 6.6758-1.0273 10.309-2.5391 15.766-4.9961 1.9727-0.88281 4.2812-1.9102 7.3477-3.1484 12.008 11.273 28.215 24.391 45.281 38.184 30.859 24.961 65.852 53.258 73.723 69.633 3.8828 8.082-0.29297 13.352-3.1289 15.766-4.1562 3.5703-9.8438 4.7031-12.93 2.5391-3.4023-2.332-7.8281-2.4766-11.336-0.37891-3.5273 2.0977-5.5 6.0664-5.0586 10.141 0.71484 6.6758-5.3945 10.496-8.0391 11.82-6.7188 3.4023-13.73 2.8125-16.352 0.37891-2.9375-2.7305-7.1602-3.5273-10.895-2.1406-3.7344 1.4062-6.3398 4.8477-6.7188 8.8359-0.62891 6.8867-5.7305 13.496-12.387 16.078-3.2109 1.2188-7.8711 1.9531-12.051-1.8672-2.6016-2.3516-6.2148-3.2539-9.5938-2.4336-3.4219 0.83984-6.1719 3.3164-7.3672 6.6133-0.39844 1.0508-1.3008 3.5703-11.125 3.5703-6.9922 0-19.566-4.7227-25.715-8.7969-7.3672-4.8477-53.57-39.316-93.477-72.738-5.6055-4.7227-15.305-14.84-23.867-23.785-7.5977-7.9336-14.547-15.137-18.117-18.156-4.4727-3.7773-11.082-3.2109-14.801 1.2383-3.7344 4.4297-3.1914 11.062 1.2383 14.801 3.2539 2.75 9.5508 9.4023 16.5 16.645 9.3633 9.7812 19.039 19.902 25.547 25.359 39.086 32.727 86.066 68.055 95.43 74.207 7.7266 5.082 24.371 12.219 37.262 12.219 10.348 0 18.305-2.3711 23.824-7.0117 7.3906 2.875 15.785 2.8984 23.867-0.25 9.5508-3.6953 17.402-11.148 21.852-20.172 8.2695 1.7617 17.738 0.52344 26.344-3.8008 8.418-4.2383 14.504-10.727 17.527-18.305 8.3555 0.44141 16.961-2.5195 24.078-8.6289 12.059-10.312 15.375-26.352 8.4062-40.816z"/> <path d="m358.02 284.54h-94.465c-5.793 0-10.496 4.7031-10.496 10.496 0 5.793 4.7031 10.496 10.496 10.496h94.465c5.793 0 10.496-4.7031 10.496-10.496 0-5.793-4.7031-10.496-10.496-10.496z"/> <path d="m576.65 436.12c-3.2539-4.8086-9.7617-6.1289-14.566-2.8555l-30.691 20.613c-4.8086 3.2344-6.0898 9.7617-2.8555 14.566 2.0352 3.0039 5.3516 4.6406 8.7344 4.6406 1.9961 0 4.0312-0.56641 5.8359-1.7852l30.691-20.613c4.8008-3.2305 6.082-9.7578 2.8516-14.566z"/> <path d="m511.49 486.21c-7.5156-5.918-41.125-40.324-61.906-61.988-4.0117-4.1992-10.664-4.3438-14.84-0.31641-4.1992 4.0117-4.3242 10.664-0.31641 14.84 5.3945 5.625 52.984 55.23 64.047 63.965 1.9102 1.5117 4.2188 2.2461 6.4883 2.2461 3.0859 0 6.1719-1.3867 8.2695-4.0117 3.5898-4.5352 2.8125-11.145-1.7422-14.734z"/> <path d="m469.54 507.27c-12.574-10.055-44.168-43.621-51.305-51.387-3.9453-4.2812-10.559-4.5352-14.84-0.62891-4.2617 3.9258-4.5547 10.578-0.62891 14.84 0.37891 0.39844 38.078 41.102 53.656 53.57 1.9297 1.5312 4.2617 2.2891 6.5508 2.2891 3.0664 0 6.1289-1.3633 8.207-3.9258 3.6094-4.5352 2.875-11.148-1.6406-14.758z"/> <path d="m427.77 528.4c-14.969-12.617-45.594-45.219-51.578-51.621-3.9688-4.2383-10.621-4.4727-14.84-0.50391-4.2383 3.9688-4.4492 10.602-0.50391 14.84 8.6055 9.2148 37.91 40.285 53.383 53.34 1.9727 1.6562 4.3672 2.4766 6.7578 2.4766 2.9805 0 5.9609-1.2812 8.0391-3.7344 3.7383-4.4453 3.1719-11.059-1.2578-14.797z"/> <g clip-path="url(#b)"> <path d="m270.77 266.42c-17.988-17.043-89.93-22.566-111.55-23.848-2.9805-0.14844-5.7305 0.83984-7.8281 2.832-2.1016 1.9766-3.2969 4.7461-3.2969 7.6445v188.93c0 5.793 4.7031 10.496 10.496 10.496h62.977c4.5352 0 8.5664-2.918 9.9727-7.2422 1.5312-4.7031 37.703-115.71 42.465-170.29 0.27344-3.1914-0.90234-6.3398-3.2344-8.5234zm-56.867 165.06h-44.816v-167.18c33.734 2.6641 70.137 8.4609 83.359 14.883-5.5625 45.973-30.73 127.66-38.543 152.3z"/> </g> <g clip-path="url(#a)"> <path d="m641.41 263.55c-82.414 0-128.14 21.098-130.05 21.98-2.7305 1.2812-4.7656 3.6523-5.6055 6.5273s-0.42188 5.9609 1.1523 8.5234c12.973 20.887 53.594 136.89 61.402 165.19 1.2578 4.5547 5.3945 7.7031 10.117 7.7031h62.977c5.793 0 10.496-4.7031 10.496-10.496v-188.93c0.003906-5.8164-4.6992-10.496-10.492-10.496zm-10.496 188.93h-44.629c-9.9492-32.41-39.34-116.93-55.734-151.86 16.016-5.4375 50.422-14.777 100.36-15.953z"/> </g> </g>
</svg>