<!DOCTYPE svg PUBLIC "-//W3C//DTD SVG 1.1//EN" "http://www.w3.org/Graphics/SVG/1.1/DTD/svg11.dtd">
<!-- Uploaded to: SVG Find, www.svgfind.com, Transformed by: SVG Find Mixer Tools -->
<svg width="800px" height="800px" version="1.1" viewBox="144 144 512 512" xmlns="http://www.w3.org/2000/svg" fill="#8a2be2">
<g id="SVGRepo_bgCarrier" stroke-width="0"/>
<g id="SVGRepo_tracerCarrier" stroke-linecap="round" stroke-linejoin="round"/>
<g id="SVGRepo_iconCarrier"> <defs> <clipPath id="c"> <path d="m182 148.09h343v219.91h-343z"/> </clipPath> <clipPath id="b"> <path d="m454 148.09h71v74.906h-71z"/> </clipPath> <clipPath id="a"> <path d="m348 354h297v297.9h-297z"/> </clipPath> </defs> <path d="m227.8 578.57h-65.75c-3.8242 0-6.8711-3.0469-6.8711-6.8711v-122.07c0-3.8242 3.0469-6.8711 6.8711-6.8711h65.75c3.8242 0 6.8711 3.0469 6.8711 6.8711v122.07c0 3.8242-3.0469 6.8711-6.8711 6.8711zm-58.875-13.746h51.934v-108.33h-51.934z" fill-rule="evenodd"/> <path d="m353.27 578.57h-65.82c-3.8242 0-6.8711-3.0469-6.8711-6.8711v-201.14c0-3.8242 3.0469-6.8711 6.8711-6.8711h65.82c3.8242 0 6.8711 3.0469 6.8711 6.8711v201.14c0 3.8242-3.0469 6.8711-6.8711 6.8711zm-58.875-13.746h52.004v-187.39h-52.004z" fill-rule="evenodd"/> <path d="m413 385.02c-3.8242 0-6.8711-3.0469-6.8711-6.8711v-82.043c0-3.8242 3.0469-6.8711 6.8711-6.8711h65.676c3.8242 0 6.8711 3.0469 6.8711 6.8711v65.605c0 3.8242-3.0469 6.8711-6.8711 6.8711s-6.8711-3.0469-6.8711-6.8711v-58.734h-51.934v75.172c0 3.6836-3.0469 6.8711-6.8711 6.8711z" fill-rule="evenodd"/> <path d="m604.22 578.64h-6.3047c-3.8242 0-6.8711-3.0469-6.8711-6.8711 0-3.6133 2.7617-6.5898 6.3047-6.8711v-334.2h-52.074v150.2c0 3.8242-3.0469 6.8711-6.8711 6.8711s-6.8711-3.0469-6.8711-6.8711v-157.14c0-3.8242 3.0469-6.8711 6.8711-6.8711h65.82c3.8242 0 6.8711 3.0469 6.8711 6.8711v348.01c0 3.7539-3.0469 6.8711-6.8711 6.8711z" fill-rule="evenodd"/> <g clip-path="url(#c)"> <path d="m188.9 367.52c-3.0469 0-5.8789-2.0547-6.6602-5.2422-0.99219-3.6133 1.2734-7.4375 4.8867-8.3594 43.5-11.125 101.95-36.914 160.33-70.707 78.289-45.133 144.32-98.055 164.3-131.71 1.9844-3.2578 6.1641-4.3203 9.4219-2.3398 3.2578 1.9141 4.3203 6.1641 2.3398 9.4219-21.324 35.992-87.781 89.625-169.19 136.6-59.371 34.363-119.1 60.574-163.73 72.125-0.49609 0.21094-1.0625 0.21094-1.6992 0.21094z" fill-rule="evenodd"/> </g> <g clip-path="url(#b)"> <path d="m515.95 222.41h-0.14062c-3.8242-0.070312-6.8008-3.2578-6.7305-7.0859l1.418-49.949-46.477 18.352c-3.543 1.418-7.5117-0.28516-8.9258-3.8242-1.3477-3.543 0.28516-7.582 3.8242-8.9258l56.184-22.246c2.1953-0.85156 4.6055-0.56641 6.5195 0.78125 1.8438 1.418 2.9062 3.543 2.9062 5.8086l-1.6289 60.363c-0.14062 3.7539-3.1875 6.7305-6.9414 6.7305z" fill-rule="evenodd"/> </g> <path d="m473.5 577.37h-0.49609c-26-0.070313-50.305-10.273-68.582-28.766-18.277-18.422-28.199-42.934-28.129-68.867 0.070313-26 10.414-50.305 28.836-68.582 18.277-18.066 42.508-28.129 68.227-28.129h0.63672c25.93 0.070312 50.23 10.414 68.441 28.836 18.207 18.352 28.199 42.863 28.129 68.723-0.070312 26-10.344 50.305-28.836 68.512-18.277 18.352-42.508 28.27-68.227 28.27zm0-180.38c-22.035 0-42.934 8.5742-58.523 24.09-15.871 15.656-24.586 36.488-24.797 58.875-0.14062 22.176 8.4297 43.219 24.09 59.09 15.656 15.871 36.559 24.586 58.805 24.656h0.42578c22.105 0 42.863-8.5 58.594-24.09 15.871-15.586 24.586-36.488 24.727-58.805 0.070312-22.246-8.5-43.148-24.16-59.016-15.586-15.801-36.488-24.656-58.805-24.797h-0.35547z" fill-rule="evenodd"/> <g clip-path="url(#a)"> <path d="m612.09 651.83c-8.1484 0-15.941-3.1172-21.965-9.2109l-52.926-53.988c-22.812 13.391-49.523 19.344-76.02 16.719-28.836-2.9062-55.973-15.656-76.445-36.203-48.957-49.027-48.957-128.66 0-177.69 49.027-48.957 128.66-48.957 177.69 0 40.809 40.879 48.391 104.57 18.848 153.6l53.066 53.988c8.9258 9.0703 12.398 19.695 9.4922 29.828-2.832 10.273-11.902 18.848-23.168 21.82-2.9766 0.85156-5.8086 1.1328-8.5742 1.1328zm-73.895-78.855c1.7695 0 3.543 0.70703 4.9609 2.0547l56.75 57.953c6.0938 6.1641 13.391 5.5273 17.074 4.5352 6.5195-1.6992 11.902-6.5898 13.391-12.113 1.4883-5.3125-0.70703-11.051-6.0938-16.508l-56.82-57.953c-2.2656-2.3398-2.6914-5.8789-0.85156-8.6445 29.332-44.211 23.449-103.51-14.098-140.99-43.645-43.574-114.63-43.574-158.21 0s-43.574 114.63 0 158.21c37.195 37.195 96.07 43.359 140.07 14.664 1.2734-0.78125 2.5508-1.2031 3.8242-1.2031z" fill-rule="evenodd"/> </g> <path d="m469.75 528.41c-6.8711 0-12.684-1.5586-17.289-4.7461-5.7383-4.0391-9.2109-9.9883-10.133-17.855l-0.63672-4.1797c-0.49609-3.6836 2.1953-7.2266 5.9531-7.7227 3.6836-0.49609 7.2266 2.125 7.7227 5.8789l0.63672 4.1094c0.42578 3.9688 1.9141 6.7305 4.3203 8.3594 2.6211 1.9141 6.7305 2.5508 12.188 2.1953 5.3828-0.42578 9.2109-1.7695 11.406-4.0391 1.2031-1.2031 2.6211-3.4727 1.9844-8.5742-0.49609-3.1172-1.6289-5.8086-3.4727-7.9336-1.5586-1.9141-5.0312-4.8164-12.188-8.7852-7.582-4.1094-12.824-8.0781-16.152-11.902-3.543-4.1094-5.8086-9.2109-6.6602-15.16-1.418-10.133 2.3398-16.367 5.668-19.836 4.4648-4.7461 11.336-7.582 20.262-8.2891 8.7852-0.63672 15.871 0.92188 21.254 4.6758 5.7383 4.1094 9.0703 9.9883 10.133 17.781l0.63672 4.1094c0.42578 3.7539-2.1953 7.2969-5.9531 7.793-3.7539 0.49609-7.2969-2.1953-7.7227-5.8789l-0.63672-4.1797c-0.70703-5.1719-2.832-7.2969-4.3945-8.4297-2.6914-1.9141-6.7305-2.5508-12.113-2.1953-5.3125 0.42578-9.2812 1.7695-11.336 4.0391-0.63672 0.78125-2.7617 2.832-1.9141 8.5742 0.42578 3.1172 1.5586 5.8086 3.4023 7.9336 2.2656 2.6914 6.3047 5.668 12.328 8.8555 7.1562 3.9688 12.539 7.8633 16.012 11.832 3.6133 4.25 5.8789 9.2812 6.6602 15.16 1.1328 8.1484-0.85156 14.809-5.5977 19.836-4.6055 4.8164-11.406 7.582-20.262 8.2891-1.5586 0.28516-2.832 0.28516-4.1094 0.28516z" fill-rule="evenodd"/> <path d="m473.5 544.36c-3.8242 0-6.8711-3.0469-6.8711-6.8711v-16.082c0-3.8242 3.0469-6.8711 6.8711-6.8711 3.8242 0 6.8711 3.0469 6.8711 6.8711v16.082c0 3.8242-3.0469 6.8711-6.8711 6.8711zm0-100.46c-3.8242 0-6.8711-3.0469-6.8711-6.8711v-13.816c0-3.8984 3.0469-6.9414 6.8711-6.9414 3.8242 0 6.8711 3.0469 6.8711 6.9414v13.816c0 3.7539-3.0469 6.8711-6.8711 6.8711z" fill-rule="evenodd"/> </g>
</svg>