<!DOCTYPE svg PUBLIC "-//W3C//DTD SVG 1.1//EN" "http://www.w3.org/Graphics/SVG/1.1/DTD/svg11.dtd">
<!-- Uploaded to: SVG Find, www.svgfind.com, Transformed by: SVG Find Mixer Tools -->
<svg fill="#c71585" width="800px" height="800px" version="1.1" viewBox="144 144 512 512" xmlns="http://www.w3.org/2000/svg">
<g id="SVGRepo_bgCarrier" stroke-width="0"/>
<g id="SVGRepo_tracerCarrier" stroke-linecap="round" stroke-linejoin="round"/>
<g id="SVGRepo_iconCarrier"> <path d="m507.89 262.73c20.332 20.762 34.621 64.09 34.621 87.617v10.066h-285.03v-10.066c0-23.527 14.297-66.855 34.621-87.617 2.6836 0.97656 5.5742 1.5117 8.5859 1.5117h198.62c3.0117 0 5.9023-0.53516 8.582-1.5117zm-165.26 175.78h38.242v-38.242h38.242v38.242h38.242v38.242h-38.242v38.242h-38.242v-38.242h-38.242zm-41.941-187.47h25.848v-88.691h-25.848c-6.6719 0-12.129 5.457-12.129 12.129v64.434c0 6.6719 5.457 12.129 12.129 12.129zm39.051 0h31.367v-88.691h-31.367zm44.57 0h31.371v-88.691h-31.371zm44.578 0h31.367v-88.691h-31.367zm44.57 0h25.848c6.6719 0 12.129-5.457 12.129-12.129l-0.003906-64.434c0-6.6719-5.457-12.129-12.129-12.129h-25.848zm69.051 122.58h-285.03v168.03h285.04v-168.03zm0 181.22v25.195c0 31.688-25.926 57.613-57.613 57.613h-169.8c-31.688 0-57.613-25.926-57.613-57.613v-25.195z" fill-rule="evenodd"/> </g>
</svg>