<!DOCTYPE svg PUBLIC "-//W3C//DTD SVG 1.1//EN" "http://www.w3.org/Graphics/SVG/1.1/DTD/svg11.dtd">
<!-- Uploaded to: SVG Find, www.svgfind.com, Transformed by: SVG Find Mixer Tools -->
<svg fill="#c71585" width="800px" height="800px" version="1.1" viewBox="144 144 512 512" xmlns="http://www.w3.org/2000/svg">
<g id="SVGRepo_bgCarrier" stroke-width="0"/>
<g id="SVGRepo_tracerCarrier" stroke-linecap="round" stroke-linejoin="round"/>
<g id="SVGRepo_iconCarrier"> <path d="m393.84 359.29v-117.35h3.2383c4.1875 0 7.582-3.3945 7.582-7.582v-39.648c0-4.1875-3.3945-7.582-7.582-7.582l-133.96-0.003906c-4.1875 0-7.582 3.3945-7.582 7.582v39.648c0 4.1875 3.3945 7.582 7.582 7.582h3.2383v117.35l-101.88 176.47c-9.4375 16.336-9.4375 35.078 0 51.414 9.4297 16.336 25.664 25.711 44.531 25.711h242.2c18.867 0 35.094-9.3711 44.523-25.711 9.4375-16.336 9.4375-35.078 0-51.414zm-123.14-157h118.8v24.488h-118.8zm9.8047 162.82c0.66797-1.1562 1.0195-2.4609 1.0195-3.7891l-0.003906-119.38h97.16v119.38c0 1.332 0.35156 2.6406 1.0195 3.7891l26.719 46.273c-22.23 2.8906-35.688 12.133-47.766 20.441-9.6289 6.6211-17.957 12.355-29.992 14.91-36.457 4.3516-54.91-6.5664-81.82-23.312zm202.09 214.48c-6.6484 11.52-18.094 18.125-31.395 18.125h-242.2c-13.305 0-24.746-6.6055-31.398-18.125-6.6484-11.52-6.6484-24.734 0-36.254l61.641-106.77c23.422 14.562 43.176 26.277 74.328 26.277 5.375 0 11.094-0.35156 17.23-1.0898 0.21094-0.027344 0.41797-0.058594 0.625-0.10156 15.191-3.1484 25.672-10.355 35.812-17.328 12.816-8.8164 24.969-17.172 47.504-18.504l67.852 117.52c6.6445 11.516 6.6445 24.73-0.003906 36.25zm-228.24-86.961c-12.602 0-22.855 10.254-22.855 22.855 0 12.602 10.254 22.852 22.855 22.852s22.855-10.25 22.855-22.852c0-12.602-10.254-22.855-22.855-22.855zm0 30.551c-4.2422 0-7.6953-3.4492-7.6953-7.6875 0-4.2422 3.4531-7.6953 7.6953-7.6953s7.6875 3.4531 7.6875 7.6953c0.003906 4.2383-3.4453 7.6875-7.6875 7.6875zm94.305-3.5547c-16.113 0-29.215 13.105-29.215 29.215 0 16.113 13.109 29.215 29.215 29.215 16.105 0 29.215-13.109 29.215-29.215 0-16.105-13.105-29.215-29.215-29.215zm0 43.277c-7.75 0-14.055-6.3086-14.055-14.055s6.3086-14.055 14.055-14.055c7.7461 0 14.055 6.3047 14.055 14.055-0.003906 7.75-6.3047 14.055-14.055 14.055zm57.777-97.637c-10.941 0-19.848 8.9023-19.848 19.848 0 10.941 8.9023 19.848 19.848 19.848 10.941 0 19.848-8.9023 19.848-19.848 0.003907-10.945-8.8984-19.848-19.848-19.848zm0 24.531c-2.582 0-4.6875-2.0977-4.6875-4.6875 0-2.582 2.0977-4.6875 4.6875-4.6875 2.582 0 4.6875 2.0977 4.6875 4.6875 0 2.5859-2.0977 4.6875-4.6875 4.6875zm228.57-302.67h-110.31c-4.1875 0-7.582 3.3945-7.582 7.582v39.648c0 4.1875 3.3945 7.582 7.582 7.582h4.0078v319.8c0 28.203 22.945 51.141 51.141 51.141 28.199 0 51.141-22.945 51.141-51.141l0.003906-319.8h4.0078c4.1875 0 7.582-3.3945 7.582-7.582l0.003906-39.648c0-4.1836-3.3906-7.5781-7.5781-7.5781zm-102.73 15.16h95.148v24.488h-95.141l-0.003907-24.488zm83.559 359.45c0 19.844-16.145 35.98-35.98 35.98-19.836 0-35.98-16.145-35.98-35.98v-69.371h20.902c4.1875 0 7.582-3.3945 7.582-7.582s-3.3945-7.582-7.582-7.582h-20.902v-17.262h20.902c4.1875 0 7.582-3.3945 7.582-7.582s-3.3945-7.582-7.582-7.582h-20.902v-17.262h20.902c4.1875 0 7.582-3.3945 7.582-7.582s-3.3945-7.582-7.582-7.582h-20.902v-17.262h20.902c4.1875 0 7.582-3.3945 7.582-7.582s-3.3945-7.582-7.582-7.582h-20.902v-17.262h20.902c4.1875 0 7.582-3.3945 7.582-7.582s-3.3945-7.582-7.582-7.582h-20.902v-17.238h20.902c4.1875 0 7.582-3.3945 7.582-7.582s-3.3945-7.582-7.582-7.582h-20.902v-17.262h20.902c4.1875 0 7.582-3.3945 7.582-7.582s-3.3945-7.582-7.582-7.582h-20.902v-40.734h71.965v319.8z"/> </g>
</svg>