<!DOCTYPE svg PUBLIC "-//W3C//DTD SVG 1.1//EN" "http://www.w3.org/Graphics/SVG/1.1/DTD/svg11.dtd">
<!-- Uploaded to: SVG Find, www.svgfind.com, Transformed by: SVG Find Mixer Tools -->
<svg fill="#8a2be2" width="800px" height="800px" version="1.1" viewBox="144 144 512 512" xmlns="http://www.w3.org/2000/svg">
<g id="SVGRepo_bgCarrier" stroke-width="0"/>
<g id="SVGRepo_tracerCarrier" stroke-linecap="round" stroke-linejoin="round"/>
<g id="SVGRepo_iconCarrier"> <g> <path d="m233.39 174.16c-33.051 0-60.102 27.039-60.102 60.094 0 33.055 27.051 60.113 60.102 60.113 33.055 0 60.113-27.059 60.113-60.113 0-33.055-27.059-60.094-60.113-60.094zm333.22 0c-33.055 0-60.113 27.039-60.113 60.094 0 33.055 27.059 60.113 60.113 60.113s60.102-27.062 60.102-60.113c0-33.055-27.047-60.094-60.102-60.094zm-166.61 4.3672c-33.055 0-60.102 27.051-60.102 60.102 0 33.055 27.051 60.102 60.102 60.102 33.055 0 60.102-27.051 60.102-60.102 0-33.051-27.051-60.102-60.102-60.102zm-166.61 19.426c20.191 0 36.309 16.109 36.309 36.301s-16.117 36.309-36.309 36.309c-20.191 0-36.309-16.117-36.309-36.309s16.117-36.301 36.309-36.301zm333.22 0c20.191 0 36.309 16.109 36.309 36.301s-16.117 36.309-36.309 36.309-36.309-16.117-36.309-36.309 16.117-36.301 36.309-36.301zm-166.61 4.3789c20.191 0 36.309 16.109 36.309 36.301 0 20.191-16.117 36.309-36.309 36.309s-36.309-16.117-36.309-36.309c0-20.191 16.117-36.301 36.309-36.301zm-166.61 12.328c-5.1953 0.003906-10.18 2.0703-13.855 5.7461-3.6719 3.6758-5.7344 8.6602-5.7344 13.855 0 5.1992 2.0625 10.184 5.7344 13.859 3.6758 3.6758 8.6602 5.7422 13.855 5.7422 5.1992 0 10.184-2.0625 13.859-5.7383 3.6797-3.6758 5.7422-8.6641 5.7422-13.863s-2.0625-10.184-5.7422-13.859c-3.6758-3.6758-8.6602-5.7422-13.859-5.7422zm333.22 0c-5.1992 0-10.184 2.0664-13.859 5.7422-3.6758 3.6758-5.7422 8.6602-5.7422 13.859s2.0664 10.188 5.7422 13.863 8.6602 5.7383 13.859 5.7383 10.18-2.0664 13.855-5.7422c3.6719-3.6758 5.7383-8.6602 5.7383-13.859 0-5.1953-2.0664-10.18-5.7383-13.855-3.6758-3.6758-8.6562-5.7422-13.855-5.7461zm-166.61 4.3711c-10.824 0.003906-19.594 8.7852-19.59 19.609 0.003906 10.82 8.7695 19.59 19.59 19.59 10.82-0.003907 19.59-8.7695 19.59-19.59 0.003906-10.824-8.7656-19.609-19.59-19.609zm118.01 72.395v-0.003906c-0.625 0.023437-1.2344 0.16797-1.8008 0.42578-31.652 14.281-59.555 36.688-80.305 64.531-13.555 18.184-23.953 38.641-30.871 60.219v-101.85c0-1.3359-0.53125-2.6211-1.4727-3.5625-0.94531-0.94531-2.2266-1.4766-3.5625-1.4766-2.7852 0-5.0391 2.2539-5.0391 5.0391v101.85c-6.918-21.578-17.316-42.035-30.867-60.219-20.754-27.844-48.652-50.25-80.305-64.531-2.3945-1.0781-5.2031-0.015625-6.2891 2.3711-0.51953 1.1484-0.5625 2.4609-0.11328 3.6406 0.44531 1.1836 1.3438 2.1367 2.4961 2.6562 30.156 13.605 56.801 35.023 76.574 61.551 19.773 26.527 32.684 58.176 37.105 90.961 0.62109 4.5977 1.0469 9.2227 1.3398 13.855l-5.9336-10.293c-0.63281-1.0977-1.6719-1.8984-2.8945-2.2266-1.2188-0.32422-2.5195-0.14844-3.6094 0.48438-1.0938 0.62891-1.8945 1.6719-2.2188 2.8906-0.32812 1.2188-0.15625 2.5195 0.47656 3.6133l15.086 26.125 0.070312 0.11719h-0.003906c0.019531 0.027344 0.039062 0.054688 0.058594 0.078125 0.027344 0.039063 0.054687 0.074219 0.078125 0.10938 0.17969 0.28516 0.38672 0.55469 0.62109 0.79688 0.23438 0.21875 0.49219 0.41406 0.76953 0.58203 0.050781 0.042969 0.10156 0.085938 0.15625 0.125 0.019531 0.015625 0.039062 0.027344 0.058594 0.042969 0.027343 0.007813 0.050781 0.019531 0.078124 0.027344 0.054688 0.027343 0.11328 0.054687 0.16797 0.078125 0.58594 0.30078 1.2305 0.47656 1.8906 0.51172 0.035156 0.011719 0.070313 0.019532 0.10547 0.03125 0.019531-0.003906 0.035156-0.007812 0.050781-0.011718 0.03125 0.003906 0.058594 0.007812 0.089844 0.011718 0.027344-0.003906 0.058594-0.007812 0.085938-0.011718 0.019531 0.003906 0.035156 0.007812 0.050781 0.011718 0.35547-0.015624 0.71094-0.074218 1.0547-0.16797 0.039063-0.011719 0.082032-0.023438 0.125-0.039063 0.29688-0.085937 0.58203-0.20312 0.85547-0.34375 0.042969-0.023437 0.085937-0.046875 0.12891-0.070312 0.027344-0.003907 0.054688-0.011719 0.078125-0.019531 0.125-0.074219 0.24609-0.15234 0.36719-0.23438 0.003906-0.003906 0.011718-0.007812 0.019531-0.011718 0.007813-0.007813 0.019531-0.019532 0.027344-0.027344 0.22656-0.16797 0.4375-0.35156 0.62891-0.55469 0.035156-0.03125 0.066406-0.0625 0.10156-0.097656 0.15625-0.17969 0.30078-0.36719 0.42969-0.57031 0.03125-0.039063 0.0625-0.078125 0.089844-0.11719 0.003906-0.003906 0.007812-0.007812 0.011719-0.011718v-0.007813c0.007812-0.015625 0.019531-0.035156 0.027343-0.050781 0.015625-0.019532 0.027344-0.039063 0.039063-0.058594l15.152-26.242h0.003906c0.62891-1.0938 0.80078-2.3945 0.47656-3.6133-0.32812-1.2227-1.125-2.2617-2.2188-2.8906-1.0938-0.63672-2.3984-0.8125-3.6211-0.48438-1.2148 0.33203-2.25 1.1328-2.875 2.2266l-5.9453 10.293c0.29297-4.6289 0.71875-9.2578 1.3398-13.855 4.4258-32.789 17.336-64.434 37.105-90.961 19.773-26.527 46.418-47.945 76.574-61.551h0.003907c1.1523-0.51953 2.0469-1.4766 2.4961-2.6562 0.44531-1.1797 0.40625-2.4922-0.11719-3.6406-0.51562-1.1523-1.4727-2.0547-2.6562-2.5-0.58203-0.21875-1.207-0.31641-1.8281-0.29688zm-179.37 211.7v122.71h122.71v-122.71zm23.793 23.805h75.121v75.117h-75.121zm13.766 13.758v47.598h47.586v-47.598z"/> <path d="m338.65 503.12v122.71h122.7v-122.71zm23.797 23.797h75.109v75.121h-75.109zm13.758 13.758v47.594h47.594v-47.594z"/> </g> </g>
</svg>