<!DOCTYPE svg PUBLIC "-//W3C//DTD SVG 1.1//EN" "http://www.w3.org/Graphics/SVG/1.1/DTD/svg11.dtd">
<!-- Uploaded to: SVG Find, www.svgfind.com, Transformed by: SVG Find Mixer Tools -->
<svg fill="#001f3f" width="800px" height="800px" version="1.1" viewBox="144 144 512 512" xmlns="http://www.w3.org/2000/svg">
<g id="SVGRepo_bgCarrier" stroke-width="0"/>
<g id="SVGRepo_tracerCarrier" stroke-linecap="round" stroke-linejoin="round"/>
<g id="SVGRepo_iconCarrier"> <g> <path d="m400 352.77c-12.527 0-24.543 4.9766-33.398 13.836-8.8594 8.8555-13.836 20.871-13.836 33.398 0 12.523 4.9766 24.539 13.836 33.398 8.8555 8.8555 20.871 13.832 33.398 13.832 12.523 0 24.539-4.9766 33.398-13.832 8.8555-8.8594 13.832-20.875 13.832-33.398-0.015625-12.523-4.9961-24.527-13.852-33.383-8.8516-8.8555-20.859-13.836-33.379-13.852zm0 75.57c-7.5156 0-14.727-2.9844-20.039-8.2969-5.3164-5.3164-8.3008-12.523-8.3008-20.039s2.9844-14.727 8.3008-20.039c5.3125-5.3164 12.523-8.3008 20.039-8.3008s14.723 2.9844 20.039 8.3008c5.3125 5.3125 8.2969 12.523 8.2969 20.039-0.007813 7.5117-2.9961 14.715-8.3086 20.027s-12.516 8.3008-20.027 8.3086z"/> <path d="m567.18 382.91c26.828-35.855 34.258-68.348 20.883-91.496-16.207-28.078-59.953-35.23-114.55-23.266-17.188-46.617-43.5-75.977-73.516-75.977-30.613 0-57.324 30.598-74.477 78.82-50.34-9.2539-90.184-1.4219-105.5 25.09-15.617 27.078-1.543 66.605 33.25 106.43-28.781 36.461-39.516 71.848-25.156 96.73 11 19.051 34.508 29.074 67.27 29.074v0.003907c7.4922-0.023438 14.977-0.49219 22.414-1.4062 2.1797-0.26172 4.457-0.69922 6.6797-1.0078 17.078 49.973 44.285 81.91 75.523 81.91 30.605 0 57.32-30.59 74.473-78.805 12.453 2.3984 25.102 3.6758 37.785 3.8086 32.094 0 56.512-9.4609 67.742-28.914 15.008-25.996 2.7344-63.48-29.043-101.65 5.8477-6.4219 11.383-12.871 16.227-19.344zm4.5352-82.051c9.2109 15.957 2.0508 41.734-19.648 70.734-4.1328 5.543-8.8438 11.043-13.793 16.539l-0.003906 0.003906c-14.438-14.934-30.109-28.617-46.855-40.906-2.2695-20.707-6.293-41.188-12.027-61.211 46.793-9.9609 81.461-3.957 92.312 14.84zm-125.85 159.91c-15.258 8.8086-31.023 16.699-47.219 23.633-11.867-5.5078-24.012-11.828-36.441-18.961-12.863-7.4219-24.773-15.113-35.82-22.949-1.2539-13.484-1.9648-27.645-1.9648-42.496 0-14.328 0.64062-28.043 1.8086-41.098 14.105-10.527 28.82-20.219 44.066-29.02 9.7773-5.6484 19.387-10.625 28.863-15.246 12.566 5.7617 25.465 12.309 38.621 19.918 12.863 7.4219 24.773 15.113 35.82 22.949 1.2539 13.48 1.9648 27.645 1.9648 42.496 0 15.184-0.75391 29.633-2.0664 43.387-8.8672 5.9844-18.047 11.848-27.633 17.387zm24.48 7.2383c-2.0391 13.211-4.8672 26.285-8.4766 39.152-13.418-3.4336-26.609-7.6953-39.504-12.762 11.004-5.2461 22.027-10.984 32.945-17.285 5.1406-2.9336 10.102-5.9922 15.035-9.1055zm-95.648 25.695c-12.215 4.3125-24.684 7.8555-37.34 10.609-3.293-12.156-5.9023-24.488-7.8164-36.938 7.4922 4.918 15.164 9.7656 23.219 14.414 7.3242 4.2461 14.637 8.2188 21.938 11.914zm-68.301-66.398c-9.875-7.9141-19.297-16.387-28.215-25.367 8.7695-9.6523 18.145-18.742 28.066-27.203-0.42578 8.2773-0.71875 16.695-0.71875 25.262 0 9.3008 0.35547 18.367 0.86719 27.309zm23.008-93.863c2.0586-13.711 4.9688-27.277 8.7109-40.629 12.953 3.3164 25.695 7.4062 38.156 12.25-5.1328 2.7188-10.277 5.4805-15.426 8.4531-11.043 6.375-21.473 13.07-31.441 19.926zm92.078-28.973h-0.003906c12.98-5.4414 26.27-10.102 39.801-13.961 3.9688 13.816 7.0391 27.875 9.1875 42.086-7.4922-4.918-15.164-9.7656-23.219-14.414-8.6328-4.9648-17.219-9.457-25.77-13.711zm72.109 68.215c11.188 8.9297 21.793 18.574 31.738 28.871-10.062 9.7969-20.699 18.992-31.852 27.531 0.57812-9.5156 1.0078-19.145 1.0078-29.09-0.03125-9.3008-0.38672-18.371-0.89453-27.312zm-93.598-161.62c19.922 0 40.562 22.742 55.246 61.66-19.379 5.582-38.293 12.656-56.578 21.16-17.754-7.707-36.082-14.004-54.824-18.836 14.73-40.391 35.836-63.984 56.156-63.984zm-163.62 94.465c10.156-17.598 41.141-24.078 83.477-16.625-5.4336 19.586-9.2539 39.59-11.422 59.801-15.414 11.93-29.801 25.133-43.012 39.465-28.914-33.738-39.414-64.68-29.043-82.641zm79.16 202.61c-35.969 4.3008-61.867-2.4023-71.078-18.355-9.4219-16.32-1.5117-43.379 21.664-73.496l0.003906 0.003906c13.227 13.199 27.426 25.391 42.477 36.465 2.0547 18.52 5.4883 36.859 10.277 54.867-1.0898 0.14844-2.25 0.38672-3.3438 0.51562zm84.457 80.781c-20.742 0-42.289-24.57-57.051-66.504l-0.003907 0.003906c18.965-4.293 37.543-10.145 55.543-17.5 18.637 8.2617 37.922 14.98 57.66 20.094-14.746 40.336-35.836 63.906-56.148 63.906zm163.62-94.465c-10.16 17.598-41.145 24.082-83.477 16.652 5.1836-18.676 8.8906-37.73 11.082-56.992 16.488-11.574 32.059-24.402 46.574-38.367 26.398 32.191 35.777 61.453 25.82 78.707z"/> </g> </g>
</svg>